<svg xmlns="http://www.w3.org/2000/svg" viewBox="0 0 32 32" width="32" height="32" shape-rendering="crispEdges">
    <rect width="32" height="32" fill="#081820"></rect>
    <rect x="3" y="4" width="1" height="3" fill="#88c070"></rect><rect x="2" y="5" width="3" height="1" fill="#88c070"></rect><rect x="11" y="1" width="1" height="3" fill="#88c070"></rect><rect x="10" y="2" width="3" height="1" fill="#88c070"></rect><rect x="17" y="8" width="1" height="3" fill="#88c070"></rect><rect x="16" y="9" width="3" height="1" fill="#88c070"></rect><rect x="25" y="13" width="1" height="3" fill="#88c070"></rect><rect x="24" y="14" width="3" height="1" fill="#88c070"></rect><rect x="7" y="19" width="1" height="3" fill="#88c070"></rect><rect x="6" y="20" width="3" height="1" fill="#88c070"></rect><rect x="22" y="21" width="1" height="3" fill="#88c070"></rect><rect x="21" y="22" width="3" height="1" fill="#88c070"></rect><rect x="14" y="26" width="1" height="3" fill="#88c070"></rect><rect x="13" y="27" width="3" height="1" fill="#88c070"></rect><rect x="29" y="4" width="1" height="3" fill="#88c070"></rect><rect x="28" y="5" width="3" height="1" fill="#88c070"></rect><rect x="5" y="27" width="1" height="3" fill="#88c070"></rect><rect x="4" y="28" width="3" height="1" fill="#88c070"></rect><rect x="19" y="17" width="1" height="3" fill="#88c070"></rect><rect x="18" y="18" width="3" height="1" fill="#88c070"></rect><rect x="27" y="27" width="1" height="3" fill="#88c070"></rect><rect x="26" y="28" width="3" height="1" fill="#88c070"></rect>
  </svg>