<svg xmlns="http://www.w3.org/2000/svg" viewBox="0 0 102 17" width="816" height="136" shape-rendering="crispEdges">
    <rect width="102" height="17" fill="#f4ecd8"></rect>
    <rect x="0" y="0" width="4" height="1" fill="#081820"></rect><rect x="0" y="1" width="1" height="1" fill="#081820"></rect><rect x="4" y="1" width="1" height="1" fill="#081820"></rect><rect x="0" y="2" width="1" height="1" fill="#081820"></rect><rect x="4" y="2" width="1" height="1" fill="#081820"></rect><rect x="0" y="3" width="4" height="1" fill="#081820"></rect><rect x="0" y="4" width="1" height="1" fill="#081820"></rect><rect x="4" y="4" width="1" height="1" fill="#081820"></rect><rect x="0" y="5" width="1" height="1" fill="#081820"></rect><rect x="4" y="5" width="1" height="1" fill="#081820"></rect><rect x="0" y="6" width="4" height="1" fill="#081820"></rect><rect x="6" y="0" width="5" height="1" fill="#081820"></rect><rect x="8" y="1" width="1" height="1" fill="#081820"></rect><rect x="8" y="2" width="1" height="1" fill="#081820"></rect><rect x="8" y="3" width="1" height="1" fill="#081820"></rect><rect x="8" y="4" width="1" height="1" fill="#081820"></rect><rect x="8" y="5" width="1" height="1" fill="#081820"></rect><rect x="6" y="6" width="5" height="1" fill="#081820"></rect><rect x="12" y="0" width="1" height="1" fill="#081820"></rect><rect x="16" y="0" width="1" height="1" fill="#081820"></rect><rect x="12" y="1" width="1" height="1" fill="#081820"></rect><rect x="15" y="1" width="1" height="1" fill="#081820"></rect><rect x="12" y="2" width="1" height="1" fill="#081820"></rect><rect x="14" y="2" width="1" height="1" fill="#081820"></rect><rect x="12" y="3" width="2" height="1" fill="#081820"></rect><rect x="12" y="4" width="1" height="1" fill="#081820"></rect><rect x="14" y="4" width="1" height="1" fill="#081820"></rect><rect x="12" y="5" width="1" height="1" fill="#081820"></rect><rect x="15" y="5" width="1" height="1" fill="#081820"></rect><rect x="12" y="6" width="1" height="1" fill="#081820"></rect><rect x="16" y="6" width="1" height="1" fill="#081820"></rect><rect x="18" y="0" width="5" height="1" fill="#081820"></rect><rect x="18" y="1" width="1" height="1" fill="#081820"></rect><rect x="18" y="2" width="1" height="1" fill="#081820"></rect><rect x="18" y="3" width="4" height="1" fill="#081820"></rect><rect x="18" y="4" width="1" height="1" fill="#081820"></rect><rect x="18" y="5" width="1" height="1" fill="#081820"></rect><rect x="18" y="6" width="5" height="1" fill="#081820"></rect><rect x="24" y="0" width="1" height="1" fill="#081820"></rect><rect x="28" y="0" width="1" height="1" fill="#081820"></rect><rect x="24" y="1" width="1" height="1" fill="#081820"></rect><rect x="28" y="1" width="1" height="1" fill="#081820"></rect><rect x="24" y="2" width="1" height="1" fill="#081820"></rect><rect x="28" y="2" width="1" height="1" fill="#081820"></rect><rect x="24" y="3" width="1" height="1" fill="#081820"></rect><rect x="28" y="3" width="1" height="1" fill="#081820"></rect><rect x="24" y="4" width="1" height="1" fill="#081820"></rect><rect x="26" y="4" width="1" height="1" fill="#081820"></rect><rect x="28" y="4" width="1" height="1" fill="#081820"></rect><rect x="24" y="5" width="2" height="1" fill="#081820"></rect><rect x="27" y="5" width="2" height="1" fill="#081820"></rect><rect x="24" y="6" width="1" height="1" fill="#081820"></rect><rect x="28" y="6" width="1" height="1" fill="#081820"></rect><rect x="31" y="0" width="3" height="1" fill="#081820"></rect><rect x="30" y="1" width="1" height="1" fill="#081820"></rect><rect x="34" y="1" width="1" height="1" fill="#081820"></rect><rect x="30" y="2" width="1" height="1" fill="#081820"></rect><rect x="34" y="2" width="1" height="1" fill="#081820"></rect><rect x="30" y="3" width="5" height="1" fill="#081820"></rect><rect x="30" y="4" width="1" height="1" fill="#081820"></rect><rect x="34" y="4" width="1" height="1" fill="#081820"></rect><rect x="30" y="5" width="1" height="1" fill="#081820"></rect><rect x="34" y="5" width="1" height="1" fill="#081820"></rect><rect x="30" y="6" width="1" height="1" fill="#081820"></rect><rect x="34" y="6" width="1" height="1" fill="#081820"></rect><rect x="36" y="0" width="5" height="1" fill="#081820"></rect><rect x="38" y="1" width="1" height="1" fill="#081820"></rect><rect x="38" y="2" width="1" height="1" fill="#081820"></rect><rect x="38" y="3" width="1" height="1" fill="#081820"></rect><rect x="38" y="4" width="1" height="1" fill="#081820"></rect><rect x="38" y="5" width="1" height="1" fill="#081820"></rect><rect x="38" y="6" width="1" height="1" fill="#081820"></rect><rect x="43" y="0" width="4" height="1" fill="#081820"></rect><rect x="42" y="1" width="1" height="1" fill="#081820"></rect><rect x="42" y="2" width="1" height="1" fill="#081820"></rect><rect x="42" y="3" width="1" height="1" fill="#081820"></rect><rect x="42" y="4" width="1" height="1" fill="#081820"></rect><rect x="42" y="5" width="1" height="1" fill="#081820"></rect><rect x="43" y="6" width="4" height="1" fill="#081820"></rect><rect x="48" y="0" width="1" height="1" fill="#081820"></rect><rect x="52" y="0" width="1" height="1" fill="#081820"></rect><rect x="48" y="1" width="1" height="1" fill="#081820"></rect><rect x="52" y="1" width="1" height="1" fill="#081820"></rect><rect x="48" y="2" width="1" height="1" fill="#081820"></rect><rect x="52" y="2" width="1" height="1" fill="#081820"></rect><rect x="48" y="3" width="5" height="1" fill="#081820"></rect><rect x="48" y="4" width="1" height="1" fill="#081820"></rect><rect x="52" y="4" width="1" height="1" fill="#081820"></rect><rect x="48" y="5" width="1" height="1" fill="#081820"></rect><rect x="52" y="5" width="1" height="1" fill="#081820"></rect><rect x="48" y="6" width="1" height="1" fill="#081820"></rect><rect x="52" y="6" width="1" height="1" fill="#081820"></rect>
    <rect x="2" y="10" width="1" height="1" fill="#346856"></rect><rect x="2" y="11" width="1" height="1" fill="#346856"></rect><rect x="7" y="10" width="3" height="1" fill="#346856"></rect><rect x="6" y="11" width="1" height="1" fill="#346856"></rect><rect x="10" y="11" width="1" height="1" fill="#346856"></rect><rect x="6" y="12" width="1" height="1" fill="#346856"></rect><rect x="10" y="12" width="1" height="1" fill="#346856"></rect><rect x="7" y="13" width="4" height="1" fill="#346856"></rect><rect x="10" y="14" width="1" height="1" fill="#346856"></rect><rect x="6" y="15" width="1" height="1" fill="#346856"></rect><rect x="10" y="15" width="1" height="1" fill="#346856"></rect><rect x="7" y="16" width="3" height="1" fill="#346856"></rect><rect x="13" y="10" width="3" height="1" fill="#346856"></rect><rect x="12" y="11" width="1" height="1" fill="#346856"></rect><rect x="16" y="11" width="1" height="1" fill="#346856"></rect><rect x="12" y="12" width="1" height="1" fill="#346856"></rect><rect x="16" y="12" width="1" height="1" fill="#346856"></rect><rect x="13" y="13" width="4" height="1" fill="#346856"></rect><rect x="16" y="14" width="1" height="1" fill="#346856"></rect><rect x="12" y="15" width="1" height="1" fill="#346856"></rect><rect x="16" y="15" width="1" height="1" fill="#346856"></rect><rect x="13" y="16" width="3" height="1" fill="#346856"></rect><rect x="36" y="10" width="4" height="1" fill="#346856"></rect><rect x="36" y="11" width="1" height="1" fill="#346856"></rect><rect x="40" y="11" width="1" height="1" fill="#346856"></rect><rect x="36" y="12" width="1" height="1" fill="#346856"></rect><rect x="40" y="12" width="1" height="1" fill="#346856"></rect><rect x="36" y="13" width="1" height="1" fill="#346856"></rect><rect x="40" y="13" width="1" height="1" fill="#346856"></rect><rect x="36" y="14" width="1" height="1" fill="#346856"></rect><rect x="40" y="14" width="1" height="1" fill="#346856"></rect><rect x="36" y="15" width="1" height="1" fill="#346856"></rect><rect x="40" y="15" width="1" height="1" fill="#346856"></rect><rect x="36" y="16" width="4" height="1" fill="#346856"></rect><rect x="43" y="10" width="3" height="1" fill="#346856"></rect><rect x="42" y="11" width="1" height="1" fill="#346856"></rect><rect x="46" y="11" width="1" height="1" fill="#346856"></rect><rect x="42" y="12" width="1" height="1" fill="#346856"></rect><rect x="46" y="12" width="1" height="1" fill="#346856"></rect><rect x="42" y="13" width="1" height="1" fill="#346856"></rect><rect x="46" y="13" width="1" height="1" fill="#346856"></rect><rect x="42" y="14" width="1" height="1" fill="#346856"></rect><rect x="46" y="14" width="1" height="1" fill="#346856"></rect><rect x="42" y="15" width="1" height="1" fill="#346856"></rect><rect x="46" y="15" width="1" height="1" fill="#346856"></rect><rect x="43" y="16" width="3" height="1" fill="#346856"></rect><rect x="48" y="10" width="1" height="1" fill="#346856"></rect><rect x="52" y="10" width="1" height="1" fill="#346856"></rect><rect x="48" y="11" width="2" height="1" fill="#346856"></rect><rect x="52" y="11" width="1" height="1" fill="#346856"></rect><rect x="48" y="12" width="2" height="1" fill="#346856"></rect><rect x="52" y="12" width="1" height="1" fill="#346856"></rect><rect x="48" y="13" width="1" height="1" fill="#346856"></rect><rect x="50" y="13" width="1" height="1" fill="#346856"></rect><rect x="52" y="13" width="1" height="1" fill="#346856"></rect><rect x="48" y="14" width="1" height="1" fill="#346856"></rect><rect x="51" y="14" width="2" height="1" fill="#346856"></rect><rect x="48" y="15" width="1" height="1" fill="#346856"></rect><rect x="51" y="15" width="2" height="1" fill="#346856"></rect><rect x="48" y="16" width="1" height="1" fill="#346856"></rect><rect x="52" y="16" width="1" height="1" fill="#346856"></rect><rect x="56" y="10" width="1" height="1" fill="#346856"></rect><rect x="56" y="11" width="1" height="1" fill="#346856"></rect><rect x="60" y="10" width="5" height="1" fill="#346856"></rect><rect x="62" y="11" width="1" height="1" fill="#346856"></rect><rect x="62" y="12" width="1" height="1" fill="#346856"></rect><rect x="62" y="13" width="1" height="1" fill="#346856"></rect><rect x="62" y="14" width="1" height="1" fill="#346856"></rect><rect x="62" y="15" width="1" height="1" fill="#346856"></rect><rect x="62" y="16" width="1" height="1" fill="#346856"></rect><rect x="72" y="10" width="4" height="1" fill="#346856"></rect><rect x="72" y="11" width="1" height="1" fill="#346856"></rect><rect x="76" y="11" width="1" height="1" fill="#346856"></rect><rect x="72" y="12" width="1" height="1" fill="#346856"></rect><rect x="76" y="12" width="1" height="1" fill="#346856"></rect><rect x="72" y="13" width="4" height="1" fill="#346856"></rect><rect x="72" y="14" width="1" height="1" fill="#346856"></rect><rect x="76" y="14" width="1" height="1" fill="#346856"></rect><rect x="72" y="15" width="1" height="1" fill="#346856"></rect><rect x="76" y="15" width="1" height="1" fill="#346856"></rect><rect x="72" y="16" width="4" height="1" fill="#346856"></rect><rect x="78" y="10" width="1" height="1" fill="#346856"></rect><rect x="78" y="11" width="1" height="1" fill="#346856"></rect><rect x="78" y="12" width="1" height="1" fill="#346856"></rect><rect x="78" y="13" width="1" height="1" fill="#346856"></rect><rect x="78" y="14" width="1" height="1" fill="#346856"></rect><rect x="78" y="15" width="1" height="1" fill="#346856"></rect><rect x="78" y="16" width="5" height="1" fill="#346856"></rect><rect x="84" y="10" width="5" height="1" fill="#346856"></rect><rect x="86" y="11" width="1" height="1" fill="#346856"></rect><rect x="86" y="12" width="1" height="1" fill="#346856"></rect><rect x="86" y="13" width="1" height="1" fill="#346856"></rect><rect x="86" y="14" width="1" height="1" fill="#346856"></rect><rect x="86" y="15" width="1" height="1" fill="#346856"></rect><rect x="84" y="16" width="5" height="1" fill="#346856"></rect><rect x="90" y="10" width="1" height="1" fill="#346856"></rect><rect x="94" y="10" width="1" height="1" fill="#346856"></rect><rect x="90" y="11" width="2" height="1" fill="#346856"></rect><rect x="94" y="11" width="1" height="1" fill="#346856"></rect><rect x="90" y="12" width="2" height="1" fill="#346856"></rect><rect x="94" y="12" width="1" height="1" fill="#346856"></rect><rect x="90" y="13" width="1" height="1" fill="#346856"></rect><rect x="92" y="13" width="1" height="1" fill="#346856"></rect><rect x="94" y="13" width="1" height="1" fill="#346856"></rect><rect x="90" y="14" width="1" height="1" fill="#346856"></rect><rect x="93" y="14" width="2" height="1" fill="#346856"></rect><rect x="90" y="15" width="1" height="1" fill="#346856"></rect><rect x="93" y="15" width="2" height="1" fill="#346856"></rect><rect x="90" y="16" width="1" height="1" fill="#346856"></rect><rect x="94" y="16" width="1" height="1" fill="#346856"></rect><rect x="96" y="10" width="1" height="1" fill="#346856"></rect><rect x="100" y="10" width="1" height="1" fill="#346856"></rect><rect x="96" y="11" width="1" height="1" fill="#346856"></rect><rect x="99" y="11" width="1" height="1" fill="#346856"></rect><rect x="96" y="12" width="1" height="1" fill="#346856"></rect><rect x="98" y="12" width="1" height="1" fill="#346856"></rect><rect x="96" y="13" width="2" height="1" fill="#346856"></rect><rect x="96" y="14" width="1" height="1" fill="#346856"></rect><rect x="98" y="14" width="1" height="1" fill="#346856"></rect><rect x="96" y="15" width="1" height="1" fill="#346856"></rect><rect x="99" y="15" width="1" height="1" fill="#346856"></rect><rect x="96" y="16" width="1" height="1" fill="#346856"></rect><rect x="100" y="16" width="1" height="1" fill="#346856"></rect>
  </svg>