<svg xmlns="http://www.w3.org/2000/svg" viewBox="-2 -2 34 29" width="272" height="232" shape-rendering="crispEdges">
    <rect x="-2" y="-2" width="34" height="29" fill="#ffd400"></rect>
    <rect x="-2" y="-2" width="34" height="2" fill="#081820"></rect>
    <rect x="-2" y="25" width="34" height="2" fill="#081820"></rect>
    <rect x="-2" y="-2" width="2" height="29" fill="#081820"></rect>
    <rect x="30" y="-2" width="2" height="29" fill="#081820"></rect>
    <rect x="0" y="0" width="4" height="1" fill="#081820"></rect><rect x="0" y="1" width="1" height="1" fill="#081820"></rect><rect x="4" y="1" width="1" height="1" fill="#081820"></rect><rect x="0" y="2" width="1" height="1" fill="#081820"></rect><rect x="4" y="2" width="1" height="1" fill="#081820"></rect><rect x="0" y="3" width="4" height="1" fill="#081820"></rect><rect x="0" y="4" width="1" height="1" fill="#081820"></rect><rect x="4" y="4" width="1" height="1" fill="#081820"></rect><rect x="0" y="5" width="1" height="1" fill="#081820"></rect><rect x="4" y="5" width="1" height="1" fill="#081820"></rect><rect x="0" y="6" width="4" height="1" fill="#081820"></rect><rect x="6" y="0" width="5" height="1" fill="#081820"></rect><rect x="8" y="1" width="1" height="1" fill="#081820"></rect><rect x="8" y="2" width="1" height="1" fill="#081820"></rect><rect x="8" y="3" width="1" height="1" fill="#081820"></rect><rect x="8" y="4" width="1" height="1" fill="#081820"></rect><rect x="8" y="5" width="1" height="1" fill="#081820"></rect><rect x="6" y="6" width="5" height="1" fill="#081820"></rect><rect x="12" y="0" width="1" height="1" fill="#081820"></rect><rect x="16" y="0" width="1" height="1" fill="#081820"></rect><rect x="12" y="1" width="1" height="1" fill="#081820"></rect><rect x="15" y="1" width="1" height="1" fill="#081820"></rect><rect x="12" y="2" width="1" height="1" fill="#081820"></rect><rect x="14" y="2" width="1" height="1" fill="#081820"></rect><rect x="12" y="3" width="2" height="1" fill="#081820"></rect><rect x="12" y="4" width="1" height="1" fill="#081820"></rect><rect x="14" y="4" width="1" height="1" fill="#081820"></rect><rect x="12" y="5" width="1" height="1" fill="#081820"></rect><rect x="15" y="5" width="1" height="1" fill="#081820"></rect><rect x="12" y="6" width="1" height="1" fill="#081820"></rect><rect x="16" y="6" width="1" height="1" fill="#081820"></rect><rect x="18" y="0" width="5" height="1" fill="#081820"></rect><rect x="18" y="1" width="1" height="1" fill="#081820"></rect><rect x="18" y="2" width="1" height="1" fill="#081820"></rect><rect x="18" y="3" width="4" height="1" fill="#081820"></rect><rect x="18" y="4" width="1" height="1" fill="#081820"></rect><rect x="18" y="5" width="1" height="1" fill="#081820"></rect><rect x="18" y="6" width="5" height="1" fill="#081820"></rect>
    <rect x="0" y="9" width="1" height="1" fill="#081820"></rect><rect x="4" y="9" width="1" height="1" fill="#081820"></rect><rect x="0" y="10" width="1" height="1" fill="#081820"></rect><rect x="4" y="10" width="1" height="1" fill="#081820"></rect><rect x="0" y="11" width="1" height="1" fill="#081820"></rect><rect x="4" y="11" width="1" height="1" fill="#081820"></rect><rect x="0" y="12" width="1" height="1" fill="#081820"></rect><rect x="4" y="12" width="1" height="1" fill="#081820"></rect><rect x="0" y="13" width="1" height="1" fill="#081820"></rect><rect x="2" y="13" width="1" height="1" fill="#081820"></rect><rect x="4" y="13" width="1" height="1" fill="#081820"></rect><rect x="0" y="14" width="2" height="1" fill="#081820"></rect><rect x="3" y="14" width="2" height="1" fill="#081820"></rect><rect x="0" y="15" width="1" height="1" fill="#081820"></rect><rect x="4" y="15" width="1" height="1" fill="#081820"></rect><rect x="7" y="9" width="3" height="1" fill="#081820"></rect><rect x="6" y="10" width="1" height="1" fill="#081820"></rect><rect x="10" y="10" width="1" height="1" fill="#081820"></rect><rect x="6" y="11" width="1" height="1" fill="#081820"></rect><rect x="10" y="11" width="1" height="1" fill="#081820"></rect><rect x="6" y="12" width="5" height="1" fill="#081820"></rect><rect x="6" y="13" width="1" height="1" fill="#081820"></rect><rect x="10" y="13" width="1" height="1" fill="#081820"></rect><rect x="6" y="14" width="1" height="1" fill="#081820"></rect><rect x="10" y="14" width="1" height="1" fill="#081820"></rect><rect x="6" y="15" width="1" height="1" fill="#081820"></rect><rect x="10" y="15" width="1" height="1" fill="#081820"></rect><rect x="12" y="9" width="5" height="1" fill="#081820"></rect><rect x="14" y="10" width="1" height="1" fill="#081820"></rect><rect x="14" y="11" width="1" height="1" fill="#081820"></rect><rect x="14" y="12" width="1" height="1" fill="#081820"></rect><rect x="14" y="13" width="1" height="1" fill="#081820"></rect><rect x="14" y="14" width="1" height="1" fill="#081820"></rect><rect x="14" y="15" width="1" height="1" fill="#081820"></rect><rect x="19" y="9" width="4" height="1" fill="#081820"></rect><rect x="18" y="10" width="1" height="1" fill="#081820"></rect><rect x="18" y="11" width="1" height="1" fill="#081820"></rect><rect x="18" y="12" width="1" height="1" fill="#081820"></rect><rect x="18" y="13" width="1" height="1" fill="#081820"></rect><rect x="18" y="14" width="1" height="1" fill="#081820"></rect><rect x="19" y="15" width="4" height="1" fill="#081820"></rect><rect x="24" y="9" width="1" height="1" fill="#081820"></rect><rect x="28" y="9" width="1" height="1" fill="#081820"></rect><rect x="24" y="10" width="1" height="1" fill="#081820"></rect><rect x="28" y="10" width="1" height="1" fill="#081820"></rect><rect x="24" y="11" width="1" height="1" fill="#081820"></rect><rect x="28" y="11" width="1" height="1" fill="#081820"></rect><rect x="24" y="12" width="5" height="1" fill="#081820"></rect><rect x="24" y="13" width="1" height="1" fill="#081820"></rect><rect x="28" y="13" width="1" height="1" fill="#081820"></rect><rect x="24" y="14" width="1" height="1" fill="#081820"></rect><rect x="28" y="14" width="1" height="1" fill="#081820"></rect><rect x="24" y="15" width="1" height="1" fill="#081820"></rect><rect x="28" y="15" width="1" height="1" fill="#081820"></rect>
    <rect x="9" y="18" width="1" height="1" fill="#e53935"></rect><rect x="9" y="19" width="1" height="1" fill="#e53935"></rect><rect x="14" y="18" width="3" height="1" fill="#e53935"></rect><rect x="13" y="19" width="1" height="1" fill="#e53935"></rect><rect x="17" y="19" width="1" height="1" fill="#e53935"></rect><rect x="13" y="20" width="1" height="1" fill="#e53935"></rect><rect x="17" y="20" width="1" height="1" fill="#e53935"></rect><rect x="14" y="21" width="4" height="1" fill="#e53935"></rect><rect x="17" y="22" width="1" height="1" fill="#e53935"></rect><rect x="13" y="23" width="1" height="1" fill="#e53935"></rect><rect x="17" y="23" width="1" height="1" fill="#e53935"></rect><rect x="14" y="24" width="3" height="1" fill="#e53935"></rect><rect x="20" y="18" width="3" height="1" fill="#e53935"></rect><rect x="19" y="19" width="1" height="1" fill="#e53935"></rect><rect x="23" y="19" width="1" height="1" fill="#e53935"></rect><rect x="19" y="20" width="1" height="1" fill="#e53935"></rect><rect x="23" y="20" width="1" height="1" fill="#e53935"></rect><rect x="20" y="21" width="4" height="1" fill="#e53935"></rect><rect x="23" y="22" width="1" height="1" fill="#e53935"></rect><rect x="19" y="23" width="1" height="1" fill="#e53935"></rect><rect x="23" y="23" width="1" height="1" fill="#e53935"></rect><rect x="20" y="24" width="3" height="1" fill="#e53935"></rect>
  </svg>