<svg xmlns="http://www.w3.org/2000/svg" viewBox="0 0 32 15" width="192" height="90" shape-rendering="crispEdges">
    <polygon points="29.00,11.00 23.39,14.06 25.19,20.19 19.06,18.39 16.00,24.00 12.94,18.39 6.81,20.19 8.61,14.06 3.00,11.00 8.61,7.94 6.81,1.81 12.94,3.61 16.00,-2.00 19.06,3.61 25.19,1.81 23.39,7.94" fill="#ff00aa" stroke="#081820" stroke-width="0.6"></polygon>
    <g transform="translate(4,4)"><rect x="0" y="0" width="1" height="1" fill="#081820"></rect><rect x="4" y="0" width="1" height="1" fill="#081820"></rect><rect x="0" y="1" width="2" height="1" fill="#081820"></rect><rect x="4" y="1" width="1" height="1" fill="#081820"></rect><rect x="0" y="2" width="2" height="1" fill="#081820"></rect><rect x="4" y="2" width="1" height="1" fill="#081820"></rect><rect x="0" y="3" width="1" height="1" fill="#081820"></rect><rect x="2" y="3" width="1" height="1" fill="#081820"></rect><rect x="4" y="3" width="1" height="1" fill="#081820"></rect><rect x="0" y="4" width="1" height="1" fill="#081820"></rect><rect x="3" y="4" width="2" height="1" fill="#081820"></rect><rect x="0" y="5" width="1" height="1" fill="#081820"></rect><rect x="3" y="5" width="2" height="1" fill="#081820"></rect><rect x="0" y="6" width="1" height="1" fill="#081820"></rect><rect x="4" y="6" width="1" height="1" fill="#081820"></rect><rect x="6" y="0" width="5" height="1" fill="#081820"></rect><rect x="6" y="1" width="1" height="1" fill="#081820"></rect><rect x="6" y="2" width="1" height="1" fill="#081820"></rect><rect x="6" y="3" width="4" height="1" fill="#081820"></rect><rect x="6" y="4" width="1" height="1" fill="#081820"></rect><rect x="6" y="5" width="1" height="1" fill="#081820"></rect><rect x="6" y="6" width="5" height="1" fill="#081820"></rect><rect x="12" y="0" width="1" height="1" fill="#081820"></rect><rect x="16" y="0" width="1" height="1" fill="#081820"></rect><rect x="12" y="1" width="1" height="1" fill="#081820"></rect><rect x="16" y="1" width="1" height="1" fill="#081820"></rect><rect x="12" y="2" width="1" height="1" fill="#081820"></rect><rect x="16" y="2" width="1" height="1" fill="#081820"></rect><rect x="12" y="3" width="1" height="1" fill="#081820"></rect><rect x="16" y="3" width="1" height="1" fill="#081820"></rect><rect x="12" y="4" width="1" height="1" fill="#081820"></rect><rect x="14" y="4" width="1" height="1" fill="#081820"></rect><rect x="16" y="4" width="1" height="1" fill="#081820"></rect><rect x="12" y="5" width="2" height="1" fill="#081820"></rect><rect x="15" y="5" width="2" height="1" fill="#081820"></rect><rect x="12" y="6" width="1" height="1" fill="#081820"></rect><rect x="16" y="6" width="1" height="1" fill="#081820"></rect><rect x="20" y="0" width="1" height="1" fill="#081820"></rect><rect x="20" y="1" width="1" height="1" fill="#081820"></rect><rect x="20" y="2" width="1" height="1" fill="#081820"></rect><rect x="20" y="3" width="1" height="1" fill="#081820"></rect><rect x="20" y="4" width="1" height="1" fill="#081820"></rect><rect x="20" y="6" width="1" height="1" fill="#081820"></rect></g>
  </svg>