<svg xmlns="http://www.w3.org/2000/svg" viewBox="0 0 116 15" width="696" height="90" shape-rendering="crispEdges">
    <defs>
      <pattern id="hz" x="0" y="0" width="6" height="15" patternUnits="userSpaceOnUse" patternTransform="rotate(-20)">
        <rect x="0" y="0" width="3" height="15" fill="#ffd400"></rect>
        <rect x="3" y="0" width="3" height="15" fill="#081820"></rect>
      </pattern>
    </defs>
    <rect x="0" y="0" width="116" height="15" fill="url(#hz)"></rect>
    <rect x="2" y="2" width="112" height="11" fill="#ffd400" stroke="#081820" stroke-width="0.6"></rect>
    <g transform="translate(6,4)"><rect x="0" y="0" width="1" height="1" fill="#081820"></rect><rect x="4" y="0" width="1" height="1" fill="#081820"></rect><rect x="0" y="1" width="1" height="1" fill="#081820"></rect><rect x="4" y="1" width="1" height="1" fill="#081820"></rect><rect x="0" y="2" width="1" height="1" fill="#081820"></rect><rect x="4" y="2" width="1" height="1" fill="#081820"></rect><rect x="0" y="3" width="1" height="1" fill="#081820"></rect><rect x="4" y="3" width="1" height="1" fill="#081820"></rect><rect x="0" y="4" width="1" height="1" fill="#081820"></rect><rect x="4" y="4" width="1" height="1" fill="#081820"></rect><rect x="0" y="5" width="1" height="1" fill="#081820"></rect><rect x="4" y="5" width="1" height="1" fill="#081820"></rect><rect x="1" y="6" width="3" height="1" fill="#081820"></rect><rect x="6" y="0" width="1" height="1" fill="#081820"></rect><rect x="10" y="0" width="1" height="1" fill="#081820"></rect><rect x="6" y="1" width="2" height="1" fill="#081820"></rect><rect x="10" y="1" width="1" height="1" fill="#081820"></rect><rect x="6" y="2" width="2" height="1" fill="#081820"></rect><rect x="10" y="2" width="1" height="1" fill="#081820"></rect><rect x="6" y="3" width="1" height="1" fill="#081820"></rect><rect x="8" y="3" width="1" height="1" fill="#081820"></rect><rect x="10" y="3" width="1" height="1" fill="#081820"></rect><rect x="6" y="4" width="1" height="1" fill="#081820"></rect><rect x="9" y="4" width="2" height="1" fill="#081820"></rect><rect x="6" y="5" width="1" height="1" fill="#081820"></rect><rect x="9" y="5" width="2" height="1" fill="#081820"></rect><rect x="6" y="6" width="1" height="1" fill="#081820"></rect><rect x="10" y="6" width="1" height="1" fill="#081820"></rect><rect x="12" y="0" width="4" height="1" fill="#081820"></rect><rect x="12" y="1" width="1" height="1" fill="#081820"></rect><rect x="16" y="1" width="1" height="1" fill="#081820"></rect><rect x="12" y="2" width="1" height="1" fill="#081820"></rect><rect x="16" y="2" width="1" height="1" fill="#081820"></rect><rect x="12" y="3" width="1" height="1" fill="#081820"></rect><rect x="16" y="3" width="1" height="1" fill="#081820"></rect><rect x="12" y="4" width="1" height="1" fill="#081820"></rect><rect x="16" y="4" width="1" height="1" fill="#081820"></rect><rect x="12" y="5" width="1" height="1" fill="#081820"></rect><rect x="16" y="5" width="1" height="1" fill="#081820"></rect><rect x="12" y="6" width="4" height="1" fill="#081820"></rect><rect x="18" y="0" width="5" height="1" fill="#081820"></rect><rect x="18" y="1" width="1" height="1" fill="#081820"></rect><rect x="18" y="2" width="1" height="1" fill="#081820"></rect><rect x="18" y="3" width="4" height="1" fill="#081820"></rect><rect x="18" y="4" width="1" height="1" fill="#081820"></rect><rect x="18" y="5" width="1" height="1" fill="#081820"></rect><rect x="18" y="6" width="5" height="1" fill="#081820"></rect><rect x="24" y="0" width="4" height="1" fill="#081820"></rect><rect x="24" y="1" width="1" height="1" fill="#081820"></rect><rect x="28" y="1" width="1" height="1" fill="#081820"></rect><rect x="24" y="2" width="1" height="1" fill="#081820"></rect><rect x="28" y="2" width="1" height="1" fill="#081820"></rect><rect x="24" y="3" width="4" height="1" fill="#081820"></rect><rect x="24" y="4" width="1" height="1" fill="#081820"></rect><rect x="26" y="4" width="1" height="1" fill="#081820"></rect><rect x="24" y="5" width="1" height="1" fill="#081820"></rect><rect x="27" y="5" width="1" height="1" fill="#081820"></rect><rect x="24" y="6" width="1" height="1" fill="#081820"></rect><rect x="28" y="6" width="1" height="1" fill="#081820"></rect><rect x="37" y="0" width="4" height="1" fill="#081820"></rect><rect x="36" y="1" width="1" height="1" fill="#081820"></rect><rect x="36" y="2" width="1" height="1" fill="#081820"></rect><rect x="36" y="3" width="1" height="1" fill="#081820"></rect><rect x="36" y="4" width="1" height="1" fill="#081820"></rect><rect x="36" y="5" width="1" height="1" fill="#081820"></rect><rect x="37" y="6" width="4" height="1" fill="#081820"></rect><rect x="43" y="0" width="3" height="1" fill="#081820"></rect><rect x="42" y="1" width="1" height="1" fill="#081820"></rect><rect x="46" y="1" width="1" height="1" fill="#081820"></rect><rect x="42" y="2" width="1" height="1" fill="#081820"></rect><rect x="46" y="2" width="1" height="1" fill="#081820"></rect><rect x="42" y="3" width="1" height="1" fill="#081820"></rect><rect x="46" y="3" width="1" height="1" fill="#081820"></rect><rect x="42" y="4" width="1" height="1" fill="#081820"></rect><rect x="46" y="4" width="1" height="1" fill="#081820"></rect><rect x="42" y="5" width="1" height="1" fill="#081820"></rect><rect x="46" y="5" width="1" height="1" fill="#081820"></rect><rect x="43" y="6" width="3" height="1" fill="#081820"></rect><rect x="48" y="0" width="1" height="1" fill="#081820"></rect><rect x="52" y="0" width="1" height="1" fill="#081820"></rect><rect x="48" y="1" width="2" height="1" fill="#081820"></rect><rect x="52" y="1" width="1" height="1" fill="#081820"></rect><rect x="48" y="2" width="2" height="1" fill="#081820"></rect><rect x="52" y="2" width="1" height="1" fill="#081820"></rect><rect x="48" y="3" width="1" height="1" fill="#081820"></rect><rect x="50" y="3" width="1" height="1" fill="#081820"></rect><rect x="52" y="3" width="1" height="1" fill="#081820"></rect><rect x="48" y="4" width="1" height="1" fill="#081820"></rect><rect x="51" y="4" width="2" height="1" fill="#081820"></rect><rect x="48" y="5" width="1" height="1" fill="#081820"></rect><rect x="51" y="5" width="2" height="1" fill="#081820"></rect><rect x="48" y="6" width="1" height="1" fill="#081820"></rect><rect x="52" y="6" width="1" height="1" fill="#081820"></rect><rect x="55" y="0" width="4" height="1" fill="#081820"></rect><rect x="54" y="1" width="1" height="1" fill="#081820"></rect><rect x="54" y="2" width="1" height="1" fill="#081820"></rect><rect x="55" y="3" width="3" height="1" fill="#081820"></rect><rect x="58" y="4" width="1" height="1" fill="#081820"></rect><rect x="58" y="5" width="1" height="1" fill="#081820"></rect><rect x="54" y="6" width="4" height="1" fill="#081820"></rect><rect x="60" y="0" width="5" height="1" fill="#081820"></rect><rect x="62" y="1" width="1" height="1" fill="#081820"></rect><rect x="62" y="2" width="1" height="1" fill="#081820"></rect><rect x="62" y="3" width="1" height="1" fill="#081820"></rect><rect x="62" y="4" width="1" height="1" fill="#081820"></rect><rect x="62" y="5" width="1" height="1" fill="#081820"></rect><rect x="62" y="6" width="1" height="1" fill="#081820"></rect><rect x="66" y="0" width="4" height="1" fill="#081820"></rect><rect x="66" y="1" width="1" height="1" fill="#081820"></rect><rect x="70" y="1" width="1" height="1" fill="#081820"></rect><rect x="66" y="2" width="1" height="1" fill="#081820"></rect><rect x="70" y="2" width="1" height="1" fill="#081820"></rect><rect x="66" y="3" width="4" height="1" fill="#081820"></rect><rect x="66" y="4" width="1" height="1" fill="#081820"></rect><rect x="68" y="4" width="1" height="1" fill="#081820"></rect><rect x="66" y="5" width="1" height="1" fill="#081820"></rect><rect x="69" y="5" width="1" height="1" fill="#081820"></rect><rect x="66" y="6" width="1" height="1" fill="#081820"></rect><rect x="70" y="6" width="1" height="1" fill="#081820"></rect><rect x="72" y="0" width="1" height="1" fill="#081820"></rect><rect x="76" y="0" width="1" height="1" fill="#081820"></rect><rect x="72" y="1" width="1" height="1" fill="#081820"></rect><rect x="76" y="1" width="1" height="1" fill="#081820"></rect><rect x="72" y="2" width="1" height="1" fill="#081820"></rect><rect x="76" y="2" width="1" height="1" fill="#081820"></rect><rect x="72" y="3" width="1" height="1" fill="#081820"></rect><rect x="76" y="3" width="1" height="1" fill="#081820"></rect><rect x="72" y="4" width="1" height="1" fill="#081820"></rect><rect x="76" y="4" width="1" height="1" fill="#081820"></rect><rect x="72" y="5" width="1" height="1" fill="#081820"></rect><rect x="76" y="5" width="1" height="1" fill="#081820"></rect><rect x="73" y="6" width="3" height="1" fill="#081820"></rect><rect x="79" y="0" width="4" height="1" fill="#081820"></rect><rect x="78" y="1" width="1" height="1" fill="#081820"></rect><rect x="78" y="2" width="1" height="1" fill="#081820"></rect><rect x="78" y="3" width="1" height="1" fill="#081820"></rect><rect x="78" y="4" width="1" height="1" fill="#081820"></rect><rect x="78" y="5" width="1" height="1" fill="#081820"></rect><rect x="79" y="6" width="4" height="1" fill="#081820"></rect><rect x="84" y="0" width="5" height="1" fill="#081820"></rect><rect x="86" y="1" width="1" height="1" fill="#081820"></rect><rect x="86" y="2" width="1" height="1" fill="#081820"></rect><rect x="86" y="3" width="1" height="1" fill="#081820"></rect><rect x="86" y="4" width="1" height="1" fill="#081820"></rect><rect x="86" y="5" width="1" height="1" fill="#081820"></rect><rect x="86" y="6" width="1" height="1" fill="#081820"></rect><rect x="90" y="0" width="5" height="1" fill="#081820"></rect><rect x="92" y="1" width="1" height="1" fill="#081820"></rect><rect x="92" y="2" width="1" height="1" fill="#081820"></rect><rect x="92" y="3" width="1" height="1" fill="#081820"></rect><rect x="92" y="4" width="1" height="1" fill="#081820"></rect><rect x="92" y="5" width="1" height="1" fill="#081820"></rect><rect x="90" y="6" width="5" height="1" fill="#081820"></rect><rect x="97" y="0" width="3" height="1" fill="#081820"></rect><rect x="96" y="1" width="1" height="1" fill="#081820"></rect><rect x="100" y="1" width="1" height="1" fill="#081820"></rect><rect x="96" y="2" width="1" height="1" fill="#081820"></rect><rect x="100" y="2" width="1" height="1" fill="#081820"></rect><rect x="96" y="3" width="1" height="1" fill="#081820"></rect><rect x="100" y="3" width="1" height="1" fill="#081820"></rect><rect x="96" y="4" width="1" height="1" fill="#081820"></rect><rect x="100" y="4" width="1" height="1" fill="#081820"></rect><rect x="96" y="5" width="1" height="1" fill="#081820"></rect><rect x="100" y="5" width="1" height="1" fill="#081820"></rect><rect x="97" y="6" width="3" height="1" fill="#081820"></rect><rect x="102" y="0" width="1" height="1" fill="#081820"></rect><rect x="106" y="0" width="1" height="1" fill="#081820"></rect><rect x="102" y="1" width="2" height="1" fill="#081820"></rect><rect x="106" y="1" width="1" height="1" fill="#081820"></rect><rect x="102" y="2" width="2" height="1" fill="#081820"></rect><rect x="106" y="2" width="1" height="1" fill="#081820"></rect><rect x="102" y="3" width="1" height="1" fill="#081820"></rect><rect x="104" y="3" width="1" height="1" fill="#081820"></rect><rect x="106" y="3" width="1" height="1" fill="#081820"></rect><rect x="102" y="4" width="1" height="1" fill="#081820"></rect><rect x="105" y="4" width="2" height="1" fill="#081820"></rect><rect x="102" y="5" width="1" height="1" fill="#081820"></rect><rect x="105" y="5" width="2" height="1" fill="#081820"></rect><rect x="102" y="6" width="1" height="1" fill="#081820"></rect><rect x="106" y="6" width="1" height="1" fill="#081820"></rect></g>
  </svg>