<svg xmlns="http://www.w3.org/2000/svg" viewBox="0 0 16 16" width="32" height="32" shape-rendering="crispEdges" fill="currentColor"><rect x="7" y="2" width="2" height="1"></rect><rect x="6" y="3" width="4" height="1"></rect><rect x="6" y="4" width="4" height="1"></rect><rect x="5" y="5" width="2" height="1"></rect><rect x="9" y="5" width="2" height="1"></rect><rect x="5" y="6" width="2" height="1"></rect><rect x="9" y="6" width="2" height="1"></rect><rect x="4" y="7" width="2" height="1"></rect><rect x="7" y="7" width="2" height="1"></rect><rect x="10" y="7" width="2" height="1"></rect><rect x="4" y="8" width="2" height="1"></rect><rect x="7" y="8" width="2" height="1"></rect><rect x="10" y="8" width="2" height="1"></rect><rect x="3" y="9" width="2" height="1"></rect><rect x="7" y="9" width="2" height="1"></rect><rect x="11" y="9" width="2" height="1"></rect><rect x="3" y="10" width="2" height="1"></rect><rect x="7" y="10" width="2" height="1"></rect><rect x="11" y="10" width="2" height="1"></rect><rect x="2" y="11" width="2" height="1"></rect><rect x="12" y="11" width="2" height="1"></rect><rect x="2" y="12" width="2" height="1"></rect><rect x="7" y="12" width="2" height="1"></rect><rect x="12" y="12" width="2" height="1"></rect><rect x="1" y="13" width="14" height="1"></rect><rect x="1" y="14" width="14" height="1"></rect></svg>