<svg xmlns="http://www.w3.org/2000/svg" viewBox="0 0 16 16" width="32" height="32" shape-rendering="crispEdges" fill="currentColor"><rect x="4" y="2" width="8" height="1"></rect><rect x="3" y="3" width="1" height="1"></rect><rect x="12" y="3" width="1" height="1"></rect><rect x="2" y="4" width="1" height="1"></rect><rect x="5" y="4" width="2" height="1"></rect><rect x="9" y="4" width="2" height="1"></rect><rect x="13" y="4" width="1" height="1"></rect><rect x="1" y="5" width="1" height="1"></rect><rect x="14" y="5" width="1" height="1"></rect><rect x="1" y="6" width="1" height="1"></rect><rect x="6" y="6" width="2" height="1"></rect><rect x="14" y="6" width="1" height="1"></rect><rect x="0" y="7" width="1" height="1"></rect><rect x="6" y="7" width="2" height="1"></rect><rect x="15" y="7" width="1" height="1"></rect><rect x="0" y="8" width="1" height="1"></rect><rect x="6" y="8" width="2" height="1"></rect><rect x="15" y="8" width="1" height="1"></rect><rect x="0" y="9" width="1" height="1"></rect><rect x="6" y="9" width="5" height="1"></rect><rect x="15" y="9" width="1" height="1"></rect><rect x="1" y="10" width="1" height="1"></rect><rect x="15" y="10" width="1" height="1"></rect><rect x="1" y="11" width="1" height="1"></rect><rect x="14" y="11" width="1" height="1"></rect><rect x="2" y="12" width="1" height="1"></rect><rect x="5" y="12" width="2" height="1"></rect><rect x="9" y="12" width="2" height="1"></rect><rect x="13" y="12" width="1" height="1"></rect><rect x="3" y="13" width="1" height="1"></rect><rect x="12" y="13" width="1" height="1"></rect><rect x="4" y="14" width="8" height="1"></rect></svg>