<svg xmlns="http://www.w3.org/2000/svg" viewBox="0 0 16 16" width="32" height="32" shape-rendering="crispEdges" fill="currentColor"><rect x="4" y="3" width="8" height="1"></rect><rect x="2" y="4" width="2" height="1"></rect><rect x="12" y="4" width="2" height="1"></rect><rect x="1" y="5" width="1" height="1"></rect><rect x="4" y="5" width="8" height="1"></rect><rect x="14" y="5" width="1" height="1"></rect><rect x="0" y="6" width="1" height="1"></rect><rect x="3" y="6" width="2" height="1"></rect><rect x="11" y="6" width="2" height="1"></rect><rect x="15" y="6" width="1" height="1"></rect><rect x="0" y="7" width="1" height="1"></rect><rect x="2" y="7" width="2" height="1"></rect><rect x="6" y="7" width="4" height="1"></rect><rect x="12" y="7" width="2" height="1"></rect><rect x="15" y="7" width="1" height="1"></rect><rect x="0" y="8" width="1" height="1"></rect><rect x="2" y="8" width="1" height="1"></rect><rect x="5" y="8" width="6" height="1"></rect><rect x="13" y="8" width="1" height="1"></rect><rect x="15" y="8" width="1" height="1"></rect><rect x="0" y="9" width="1" height="1"></rect><rect x="2" y="9" width="1" height="1"></rect><rect x="5" y="9" width="6" height="1"></rect><rect x="13" y="9" width="1" height="1"></rect><rect x="15" y="9" width="1" height="1"></rect><rect x="0" y="10" width="1" height="1"></rect><rect x="2" y="10" width="2" height="1"></rect><rect x="6" y="10" width="4" height="1"></rect><rect x="12" y="10" width="2" height="1"></rect><rect x="15" y="10" width="1" height="1"></rect><rect x="0" y="11" width="1" height="1"></rect><rect x="3" y="11" width="2" height="1"></rect><rect x="11" y="11" width="2" height="1"></rect><rect x="15" y="11" width="1" height="1"></rect><rect x="1" y="12" width="1" height="1"></rect><rect x="4" y="12" width="8" height="1"></rect><rect x="14" y="12" width="1" height="1"></rect><rect x="2" y="13" width="2" height="1"></rect><rect x="12" y="13" width="2" height="1"></rect><rect x="4" y="14" width="8" height="1"></rect></svg>