<svg xmlns="http://www.w3.org/2000/svg" viewBox="0 0 16 16" width="32" height="32" shape-rendering="crispEdges" fill="currentColor"><rect x="5" y="2" width="6" height="1"></rect><rect x="4" y="3" width="2" height="1"></rect><rect x="10" y="3" width="2" height="1"></rect><rect x="3" y="4" width="2" height="1"></rect><rect x="11" y="4" width="2" height="1"></rect><rect x="3" y="5" width="1" height="1"></rect><rect x="12" y="5" width="1" height="1"></rect><rect x="3" y="6" width="1" height="1"></rect><rect x="12" y="6" width="1" height="1"></rect><rect x="2" y="7" width="12" height="1"></rect><rect x="2" y="8" width="1" height="1"></rect><rect x="13" y="8" width="1" height="1"></rect><rect x="2" y="9" width="1" height="1"></rect><rect x="7" y="9" width="2" height="1"></rect><rect x="13" y="9" width="1" height="1"></rect><rect x="2" y="10" width="1" height="1"></rect><rect x="7" y="10" width="2" height="1"></rect><rect x="13" y="10" width="1" height="1"></rect><rect x="2" y="11" width="1" height="1"></rect><rect x="7" y="11" width="2" height="1"></rect><rect x="13" y="11" width="1" height="1"></rect><rect x="2" y="12" width="1" height="1"></rect><rect x="13" y="12" width="1" height="1"></rect><rect x="2" y="13" width="12" height="1"></rect></svg>